<svg xmlns="http://www.w3.org/2000/svg" width="960" height="540" viewBox="0 0 960 540">
  <defs>
    <linearGradient id="g1" x1="0" y1="0" x2="1" y2="1">
      <stop offset="0" stop-color="#22c55e"/>
      <stop offset="0.45" stop-color="#06b6d4"/>
      <stop offset="1" stop-color="#4f46e5"/>
    </linearGradient>
    <linearGradient id="g2" x1="0" y1="1" x2="1" y2="0">
      <stop offset="0" stop-color="#0ea5e9"/>
      <stop offset="1" stop-color="#14b8a6"/>
    </linearGradient>
    <filter id="soft" x="-20%" y="-20%" width="140%" height="140%">
      <feGaussianBlur stdDeviation="10" result="b"/>
      <feColorMatrix
        in="b"
        type="matrix"
        values="1 0 0 0 0  0 1 0 0 0  0 0 1 0 0  0 0 0 0.25 0"
        result="s"
      />
      <feMerge>
        <feMergeNode in="s"/>
        <feMergeNode in="SourceGraphic"/>
      </feMerge>
    </filter>
  </defs>

  <rect width="960" height="540" rx="34" fill="#ffffff"/>

  <g transform="translate(110 90)" filter="url(#soft)">
    <path
      d="M94 78c0-26 21-47 47-47h210c26 0 47 21 47 47v54h-84V116H178v84h136c26 0 47 21 47 47v54c0 26-21 47-47 47H141c-26 0-47-21-47-47v-54h84v16h136v-84H178c-26 0-47-21-47-47V78Z"
      fill="url(#g1)"
    />
    <circle cx="305" cy="190" r="38" fill="#ffffff" opacity="0.9"/>
    <circle cx="305" cy="190" r="20" fill="url(#g2)"/>
    <path d="M330 154l92-74v74h-92Z" fill="url(#g2)" opacity="0.95"/>
  </g>

  <g opacity="0.12">
    <circle cx="118" cy="450" r="86" fill="#4f46e5"/>
    <circle cx="820" cy="120" r="66" fill="#06b6d4"/>
    <circle cx="840" cy="430" r="94" fill="#22c55e"/>
  </g>
</svg>
