<svg xmlns="http://www.w3.org/2000/svg" width="960" height="540" viewBox="0 0 960 540">
  <defs>
    <linearGradient id="g" x1="0" y1="0" x2="1" y2="1">
      <stop offset="0" stop-color="#4f46e5"/>
      <stop offset="1" stop-color="#06b6d4"/>
    </linearGradient>
    <filter id="soft" x="-20%" y="-20%" width="140%" height="140%">
      <feDropShadow dx="0" dy="10" stdDeviation="12" flood-color="#0b1020" flood-opacity="0.18"/>
    </filter>
  </defs>
  <rect width="960" height="540" rx="34" fill="#ffffff"/>
  <g filter="url(#soft)" transform="translate(220 110)">
    <rect x="0" y="0" width="520" height="320" rx="28" fill="#0f172a" opacity="0.05"/>
    <rect x="22" y="22" width="476" height="276" rx="22" fill="#ffffff"/>
    <rect x="56" y="58" width="240" height="18" rx="9" fill="#e2e8f0"/>
    <rect x="56" y="94" width="160" height="14" rx="7" fill="#eef2ff"/>
    <rect x="56" y="132" width="410" height="150" rx="20" fill="url(#g)" opacity="0.12"/>
    <path
      d="M116 246c44-74 92-112 144-112 60 0 98 36 150 110"
      fill="none"
      stroke="url(#g)"
      stroke-width="10"
      stroke-linecap="round"
      opacity="0.7"
    />
    <circle cx="260" cy="208" r="10" fill="url(#g)"/>
    <circle cx="318" cy="182" r="10" fill="url(#g)" opacity="0.75"/>
    <circle cx="200" cy="186" r="10" fill="url(#g)" opacity="0.55"/>
  </g>
</svg>
