<svg xmlns="http://www.w3.org/2000/svg" width="960" height="540" viewBox="0 0 960 540">
  <defs>
    <linearGradient id="g" x1="0" y1="0" x2="1" y2="1">
      <stop offset="0" stop-color="#22c55e"/>
      <stop offset="0.5" stop-color="#06b6d4"/>
      <stop offset="1" stop-color="#4f46e5"/>
    </linearGradient>
    <filter id="soft" x="-20%" y="-20%" width="140%" height="140%">
      <feDropShadow dx="0" dy="10" stdDeviation="12" flood-color="#0b1020" flood-opacity="0.18"/>
    </filter>
  </defs>
  <rect width="960" height="540" rx="34" fill="#ffffff"/>
  <g filter="url(#soft)" transform="translate(180 130)">
    <rect x="0" y="0" width="600" height="280" rx="28" fill="#0f172a" opacity="0.05"/>
    <rect x="22" y="22" width="556" height="236" rx="22" fill="#ffffff"/>
    <rect x="60" y="62" width="220" height="16" rx="8" fill="#e2e8f0"/>
    <rect x="60" y="98" width="160" height="14" rx="7" fill="#eef2ff"/>
    <rect x="60" y="142" width="500" height="92" rx="18" fill="url(#g)" opacity="0.12"/>
    <g fill="url(#g)">
      <rect x="86" y="164" width="70" height="48" rx="14" opacity="0.9"/>
      <rect x="172" y="156" width="70" height="56" rx="14" opacity="0.65"/>
      <rect x="258" y="172" width="70" height="40" rx="14" opacity="0.8"/>
      <rect x="344" y="150" width="70" height="62" rx="14" opacity="0.55"/>
      <rect x="430" y="168" width="70" height="44" rx="14" opacity="0.75"/>
    </g>
  </g>
</svg>
